# xmcd CD database file
#
# Track frame offsets:
#	150
#	14252
#	26804
#	43080
#	57115
#	70427
#	84577
#	96789
#	111227
#	126797
#	142275
#	154981
#	166623
#	181830
#	195931
#	208588
#	221399
#	234452
#	248337
#	261949
#
# Disc length: 3672 seconds
#
# Revision: 0
# Processed by: cddbd v1.4PL0 Copyright (c) Steve Scherf et al.
# Submitted via: CDex 1.51
#
DISCID=140e5614
DTITLE=Thelonious Monk - Masters Of Jazz - Cabu [CD 1/2]
DYEAR=2003
DGENRE=Jazz
TTITLE0=Little Rootie Tootie
TTITLE1=Bye-Ya
TTITLE2=Sweet And Lovely
TTITLE3=Monk's Dream
TTITLE4=In Walked Bud
TTITLE5=Monk's Mood
TTITLE6=Who Knows?
TTITLE7='Round Midnight
TTITLE8=Bloomdido
TTITLE9=My Melancholy Baby
TTITLE10=Relaxing With Lee
TTITLE11=Evidence
TTITLE12=Misterioso
TTITLE13=Epistrophy
TTITLE14=I Mean You
TTITLE15=Flyin' Hawk
TTITLE16=Humph
TTITLE17=Evonce
TTITLE18=Suburban Eyes
TTITLE19=Thelonious
EXTD=YEAR: 2003
EXTT0=
EXTT1=
EXTT2=
EXTT3=
EXTT4=
EXTT5=
EXTT6=
EXTT7=
EXTT8=
EXTT9=
EXTT10=
EXTT11=
EXTT12=
EXTT13=
EXTT14=
EXTT15=
EXTT16=
EXTT17=
EXTT18=
EXTT19=
PLAYORDER=
